<svg width="12" height="16" viewBox="0 0 12 16" fill="none" xmlns="http://www.w3.org/2000/svg">
<path d="M9.33333 3.83333C9.33333 5.67428 7.84095 7.16667 6 7.16667C4.15905 7.16667 2.66667 5.67428 2.66667 3.83333C2.66667 1.99238 4.15905 0.5 6 0.5C7.84095 0.5 9.33333 1.99238 9.33333 3.83333Z" fill="#1D1C2A"/>
<path d="M1 15.5V13.8333C1 12.9493 1.35119 12.1014 1.97631 11.4763C2.60143 10.8512 3.44928 10.5 4.33333 10.5H7.66667C8.55072 10.5 9.39857 10.8512 10.0237 11.4763C10.6488 12.1014 11 12.9493 11 13.8333V15.5H1Z" fill="#1D1C2A"/>
<path d="M9.33333 3.83333C9.33333 5.67428 7.84095 7.16667 6 7.16667C4.15905 7.16667 2.66667 5.67428 2.66667 3.83333C2.66667 1.99238 4.15905 0.5 6 0.5C7.84095 0.5 9.33333 1.99238 9.33333 3.83333Z" stroke="#1D1C2A" stroke-linecap="round" stroke-linejoin="round"/>
<path d="M1 15.5V13.8333C1 12.9493 1.35119 12.1014 1.97631 11.4763C2.60143 10.8512 3.44928 10.5 4.33333 10.5H7.66667C8.55072 10.5 9.39857 10.8512 10.0237 11.4763C10.6488 12.1014 11 12.9493 11 13.8333V15.5H1Z" stroke="#1D1C2A" stroke-linecap="round" stroke-linejoin="round"/>
</svg>
