<svg width="20" height="16" viewBox="0 0 20 16" fill="none" xmlns="http://www.w3.org/2000/svg">
<path d="M19.5161 3.27888C19.2058 2.63724 18.7584 2.0558 18.1988 1.56709C17.6389 1.07693 16.9787 0.6874 16.2542 0.419693C15.5029 0.140996 14.6971 -0.0016576 13.8835 1.45314e-05C12.7422 1.45314e-05 11.6286 0.974763 10.6609 1.50195C10.4294 1.62806 10.2084 2.28386 10 2.43478C9.79164 2.28386 9.57286 1.62806 9.34135 1.50195C8.37364 0.974763 7.26009 1.45314e-05 6.11876 1.45314e-05C5.2969 1.45314e-05 4.50052 0.140597 3.74811 0.419693C3.02118 0.688453 2.36601 1.07505 1.80345 1.56709C1.24319 2.05524 0.795642 2.63683 0.486167 3.27888C0.164371 3.94665 0 4.65576 0 5.38554C0 6.07398 0.157426 6.79136 0.469961 7.52115C0.731565 8.13103 1.10661 8.76365 1.58583 9.40247C2.34518 10.4134 3.38928 11.4678 4.68572 12.5366C6.83412 14.3084 8.96167 15.5323 9.05196 15.5819L9.60064 15.8961C9.84372 16.0346 10.1563 16.0346 10.3993 15.8961L10.948 15.5819C11.0383 15.5302 13.1635 14.3084 15.3143 12.5366C16.6107 11.4678 17.6548 10.4134 18.4141 9.40247C18.8934 8.76365 19.2707 8.13103 19.53 7.52115C19.8425 6.79136 20 6.07398 20 5.38554C20.0023 4.65576 19.8379 3.94665 19.5161 3.27888Z" fill="#CD114E"/>
</svg>
