<svg width="35" height="36" viewBox="0 0 35 36" fill="none" xmlns="http://www.w3.org/2000/svg">
<path d="M20.4167 12C22.0275 12 23.3333 10.6569 23.3333 9C23.3333 7.34315 22.0275 6 20.4167 6C18.8058 6 17.5 7.34315 17.5 9C17.5 10.6569 18.8058 12 20.4167 12Z" stroke="#CD114E" stroke-width="2" stroke-linecap="round" stroke-linejoin="round"/>
<path d="M5.83325 9H17.4999" stroke="#CD114E" stroke-width="2" stroke-linecap="round" stroke-linejoin="round"/>
<path d="M23.3333 9H29.1666" stroke="#CD114E" stroke-width="2" stroke-linecap="round" stroke-linejoin="round"/>
<path d="M11.6667 21C13.2775 21 14.5833 19.6569 14.5833 18C14.5833 16.3431 13.2775 15 11.6667 15C10.0558 15 8.75 16.3431 8.75 18C8.75 19.6569 10.0558 21 11.6667 21Z" stroke="#CD114E" stroke-width="2" stroke-linecap="round" stroke-linejoin="round"/>
<path d="M5.83325 18H8.74992" stroke="#CD114E" stroke-width="2" stroke-linecap="round" stroke-linejoin="round"/>
<path d="M14.5833 18H29.1666" stroke="#CD114E" stroke-width="2" stroke-linecap="round" stroke-linejoin="round"/>
<path d="M24.7917 30C26.4025 30 27.7083 28.6569 27.7083 27C27.7083 25.3431 26.4025 24 24.7917 24C23.1808 24 21.875 25.3431 21.875 27C21.875 28.6569 23.1808 30 24.7917 30Z" stroke="#CD114E" stroke-width="2" stroke-linecap="round" stroke-linejoin="round"/>
<path d="M5.83325 27H21.8749" stroke="#CD114E" stroke-width="2" stroke-linecap="round" stroke-linejoin="round"/>
<path d="M27.7083 27H29.1666" stroke="#CD114E" stroke-width="2" stroke-linecap="round" stroke-linejoin="round"/>
</svg>
